<svg width="60" height="60" viewBox="0 0 60 60" fill="none" xmlns="http://www.w3.org/2000/svg">
<rect width="60" height="60" rx="30" fill="white"/>
<path fill-rule="evenodd" clip-rule="evenodd" d="M32.4 14.382C32.4 16.6922 34.2796 18.5719 36.5898 18.5719C38.9 18.5719 40.7796 16.6922 40.7796 14.382C40.7796 12.0719 38.9 10.1922 36.5898 10.1922C34.2796 10.1922 32.4 12.0719 32.4 14.382ZM36.5898 19.5094C36.7632 19.5094 36.9351 19.5008 37.1046 19.4836C36.897 19.936 36.6105 20.3479 36.2585 20.7L27.7945 29.1641L19.3304 20.7C18.5351 19.9039 18.096 18.8414 18.096 17.707C18.096 16.5727 18.5351 15.5094 19.3304 14.7141C20.9812 13.0633 23.6671 13.0633 25.3171 14.7141L27.4632 16.8594C27.5507 16.9469 27.6703 16.9961 27.7945 16.9961C27.9187 16.9961 28.0382 16.9469 28.1257 16.8594L30.2718 14.7141C30.6239 14.3619 31.0358 14.0751 31.4882 13.8672C31.471 14.0367 31.4625 14.2086 31.4625 14.382C31.4625 17.2094 33.7625 19.5094 36.5898 19.5094ZM34.3046 14.8508C34.0453 14.8508 33.8359 14.6406 33.8359 14.382C33.8359 14.1234 34.0453 13.9133 34.3046 13.9133H36.121V12.0969C36.121 11.8383 36.3312 11.6281 36.5898 11.6281C36.8484 11.6281 37.0585 11.8383 37.0585 12.0969V13.9133H38.875C39.1343 13.9133 39.3437 14.1234 39.3437 14.382C39.3437 14.6406 39.1343 14.8508 38.875 14.8508H37.0585V16.6672C37.0585 16.9258 36.8484 17.1359 36.5898 17.1359C36.3312 17.1359 36.121 16.9258 36.121 16.6672V14.8508H34.3046Z" fill="#6E3083"/>
<path d="M13.721 40.7449V41.1824V41.2449V41.6824V43.5176V44.0176H14.221H25.2882H25.7882V43.5176V41.6824V41.2449V41.1824V40.7449V38.441C25.7882 37.9399 25.3895 37.5292 24.8906 37.5126V37.0746V33.2652C24.8906 31.9921 24.3956 30.908 23.4326 30.0746L15.9594 23.6058L15.9488 23.5964C15.1907 22.8654 14.0886 22.9341 13.3398 23.6509V23.548V16.6457C13.3398 15.5599 12.4787 14.8027 11.4023 14.8027C10.3855 14.8027 9.55933 15.6289 9.55933 16.6457V26.9543C9.55933 27.9475 9.87969 28.8103 10.5292 29.5629C10.5292 29.5629 10.5292 29.563 10.5292 29.563L14.6187 34.3036V37.0746V37.5126C14.1203 37.5291 13.721 37.9386 13.721 38.441V40.7449ZM17.5681 30.4584L17.5682 30.4585L17.5681 30.4584ZM41.8671 41.6824V41.2449V41.1824V40.7449V38.441C41.8671 37.9403 41.4703 37.5292 40.971 37.5126V37.0746V34.3036L45.0581 29.564C45.0581 29.5639 45.0582 29.5639 45.0583 29.5638C45.7124 28.8099 46.0289 27.9463 46.0289 26.9543V16.6457C46.0289 15.6299 45.2067 14.8027 44.1867 14.8027C43.1107 14.8027 42.2484 15.5596 42.2484 16.6457V23.548V23.6508C41.5006 22.9337 40.3978 22.8658 39.6401 23.5964L39.6296 23.6058L32.1564 30.0746C31.1934 30.908 30.6984 31.9921 30.6984 33.2652V37.0746V37.5126C30.2 37.5291 29.8007 37.9386 29.8007 38.441V40.7449V41.1824V41.2449V41.6824V43.5176V44.0176H30.3007H41.3671H41.8671V43.5176V41.6824ZM37.5649 30.6097C37.5878 30.6669 37.6217 30.7189 37.6648 30.7629L41.9226 25.952L37.6726 30.1004C37.6285 30.1433 37.5934 30.1946 37.5691 30.2511C37.5449 30.3077 37.532 30.3685 37.5313 30.43C37.5306 30.4916 37.542 30.5526 37.5649 30.6097Z" stroke="#6E3083"/>
</svg>
