<svg width="60" height="60" viewBox="0 0 60 60" fill="none" xmlns="http://www.w3.org/2000/svg">
<rect y="-3.8147e-06" width="60" height="60" rx="30" fill="white"/>
<g clip-path="url(#clip0_654_2024)">
<path d="M35.0825 21.5625L33.2244 18.3125L29.9556 26.4856C29.9087 26.601 29.8283 26.6997 29.7248 26.7691C29.6214 26.8385 29.4996 26.8753 29.375 26.875H29.3494C29.2206 26.8699 29.0965 26.8252 28.9941 26.7469C28.8917 26.6686 28.8161 26.5605 28.7775 26.4375L26.6875 19.6487L25.5331 21.5719C25.4778 21.664 25.3997 21.7402 25.3063 21.7933C25.2129 21.8464 25.1074 21.8745 25 21.875H20.625V20.625H24.6463L26.3394 17.8031C26.4016 17.6996 26.4924 17.6164 26.6009 17.5634C26.7094 17.5104 26.8309 17.49 26.9507 17.5046C27.0706 17.5192 27.1837 17.5682 27.2762 17.6457C27.3688 17.7232 27.437 17.8258 27.4725 17.9412L29.4519 24.375L32.5444 16.6431C32.5878 16.5334 32.6613 16.4383 32.7565 16.3686C32.8517 16.299 32.9646 16.2577 33.0823 16.2495C33.1999 16.2414 33.3175 16.2666 33.4214 16.3225C33.5253 16.3783 33.6112 16.4624 33.6694 16.565L35.9875 20.625H41.6125C42.6069 16.4894 40.4125 14.2856 40.4125 14.2856C39.854 13.5382 39.129 12.9312 38.2951 12.5128C37.4611 12.0944 36.5412 11.876 35.6081 11.875C32.4038 11.875 30 14.2856 30 14.2856C30 14.2856 27.5963 11.875 24.3919 11.875C23.4584 11.8756 22.538 12.0938 21.7036 12.5122C20.8691 12.9307 20.1438 13.5379 19.585 14.2856C19.585 14.2856 12.375 21.5181 30 34.375C36.96 29.2981 40.0456 25.0987 41.2331 21.875H35.625C35.5151 21.8752 35.407 21.8464 35.3118 21.7916C35.2166 21.7367 35.1375 21.6577 35.0825 21.5625ZM46.875 19.375C46.4886 19.3766 46.1121 19.4975 45.7971 19.7213C45.482 19.9451 45.2438 20.2607 45.115 20.625H41.615C41.512 21.0487 41.3845 21.4661 41.2331 21.875H45.115C45.2301 22.1982 45.4319 22.4836 45.6983 22.6999C45.9646 22.9162 46.2853 23.0552 46.6253 23.1016C46.9653 23.1479 47.3115 23.1 47.626 22.9629C47.9406 22.8259 48.2114 22.605 48.409 22.3244C48.6065 22.0438 48.7231 21.7144 48.746 21.372C48.769 21.0297 48.6974 20.6876 48.539 20.3832C48.3807 20.0787 48.1418 19.8237 47.8483 19.6459C47.5548 19.4681 47.2181 19.3744 46.875 19.375ZM46.875 21.875C46.7514 21.875 46.6306 21.8383 46.5278 21.7697C46.425 21.701 46.3449 21.6034 46.2976 21.4892C46.2503 21.375 46.2379 21.2493 46.262 21.1281C46.2861 21.0068 46.3457 20.8955 46.4331 20.8081C46.5205 20.7206 46.6318 20.6611 46.7531 20.637C46.8743 20.6129 47 20.6253 47.1142 20.6726C47.2284 20.7199 47.326 20.8 47.3947 20.9028C47.4633 21.0055 47.5 21.1264 47.5 21.25C47.5 21.4158 47.4342 21.5747 47.3169 21.6919C47.1997 21.8091 47.0408 21.875 46.875 21.875ZM11.25 20.625H16.25V21.875H11.25V20.625Z" fill="#6E3083"/>
<path d="M20.4904 45.4963L21.5338 45.2713C22.0257 45.1656 22.5322 45.1455 23.0309 45.2119L23.0309 45.212L23.0424 45.2133L30.8436 46.0689C32.4312 46.2791 34.0409 45.9021 35.3702 45.0087L47.8529 36.634L47.8557 36.6321C48.2378 36.3721 48.5024 35.9723 48.5925 35.519C48.6826 35.0657 48.591 34.5951 48.3374 34.2088L48.2421 34.0636L48.232 34.0602C47.8519 33.5522 47.3108 33.185 46.6943 33.0206C46.0191 32.8406 45.3011 32.9165 44.6785 33.2339L44.6777 33.2343L41.2602 34.9843L40.8477 35.1956L41.0271 35.6229C41.2138 36.0675 41.234 36.5644 41.0842 37.0227C40.9345 37.4806 40.625 37.8692 40.2123 38.1177C40.2119 38.1179 40.2115 38.1181 40.2112 38.1183L33.2581 42.2418L33.2572 42.2423C31.7372 43.148 29.9269 43.4336 28.202 43.04C28.2012 43.0398 28.2003 43.0396 28.1995 43.0394L22.4056 41.6526L22.4638 41.4095L28.25 42.7932L28.25 42.7932L28.2554 42.7944C29.9188 43.1728 31.664 42.8977 33.1305 42.026L40.0851 37.9013L40.0864 37.9005C40.4834 37.6634 40.7709 37.2793 40.8867 36.8316C41.0024 36.3844 40.9372 35.9095 40.7055 35.5099C40.2778 34.7695 39.5819 34.2219 38.7617 33.9803C37.9416 33.7387 37.0599 33.8217 36.2992 34.212L36.2992 34.212L31.2548 36.8008L31.2546 36.8009C30.9734 36.9454 30.6614 37.0198 30.3452 37.0177C30.0291 37.0157 29.7181 36.9372 29.4389 36.789C29.4388 36.789 29.4388 36.789 29.4388 36.789L26.0014 34.9634L26.0007 34.963C24.7838 34.3194 23.4194 34.0062 22.0437 34.0548C20.6679 34.1034 19.329 34.5121 18.1606 35.24L17.8639 35.4249L17.9357 35.767L19.8956 45.1101L19.9989 45.6022L20.4904 45.4963ZM11.7698 34.1906L11.2835 34.2952L11.3857 34.782L14.2069 48.2277L14.3101 48.7196L14.8015 48.6138L19.6508 47.57L20.1371 47.4654L20.035 46.9785L17.2131 33.5329L17.1099 33.0411L16.6185 33.1468L11.7698 34.1906ZM14.9604 36.6981L14.7158 36.7495L14.6646 36.5059L14.9092 36.4546L14.9604 36.6981Z" fill="white" stroke="#6E3083"/>
</g>
<defs>
<clipPath id="clip0_654_2024">
<rect width="40" height="40" fill="white" transform="translate(10 10)"/>
</clipPath>
</defs>
</svg>
