<svg width="60" height="60" viewBox="0 0 60 60" fill="none" xmlns="http://www.w3.org/2000/svg">
<rect width="60" height="60" rx="30" fill="white"/>
<g clip-path="url(#clip0_654_1986)">
<path d="M14.8276 18.9655C15.0105 18.9655 15.186 18.8929 15.3153 18.7635C15.4446 18.6342 15.5173 18.4588 15.5173 18.2759V14.1379C15.5173 13.955 15.4446 13.7796 15.3153 13.6503C15.186 13.5209 15.0105 13.4483 14.8276 13.4483C14.6447 13.4483 14.4693 13.5209 14.34 13.6503C14.2106 13.7796 14.138 13.955 14.138 14.1379V18.2759C14.138 18.4588 14.2106 18.6342 14.34 18.7635C14.4693 18.8929 14.6447 18.9655 14.8276 18.9655ZM30 18.9655C30.1829 18.9655 30.3584 18.8929 30.4877 18.7635C30.617 18.6342 30.6897 18.4588 30.6897 18.2759V14.1379C30.6897 13.955 30.617 13.7796 30.4877 13.6503C30.3584 13.5209 30.1829 13.4483 30 13.4483C29.8171 13.4483 29.6417 13.5209 29.5124 13.6503C29.383 13.7796 29.3104 13.955 29.3104 14.1379V18.2759C29.3104 18.4588 29.383 18.6342 29.5124 18.7635C29.6417 18.8929 29.8171 18.9655 30 18.9655ZM19.6552 16.2069C19.8381 16.2069 20.0135 16.1342 20.1429 16.0049C20.2722 15.8756 20.3449 15.7001 20.3449 15.5172V10.6897C20.3449 10.5067 20.2722 10.3313 20.1429 10.202C20.0135 10.0727 19.8381 10 19.6552 10C19.4723 10 19.2969 10.0727 19.1676 10.202C19.0382 10.3313 18.9656 10.5067 18.9656 10.6897V15.5172C18.9656 15.7001 19.0382 15.8756 19.1676 16.0049C19.2969 16.1342 19.4723 16.2069 19.6552 16.2069ZM25.1725 16.2069C25.3554 16.2069 25.5308 16.1342 25.6601 16.0049C25.7894 15.8756 25.8621 15.7001 25.8621 15.5172V10.6897C25.8621 10.5067 25.7894 10.3313 25.6601 10.202C25.5308 10.0727 25.3554 10 25.1725 10C24.9895 10 24.8141 10.0727 24.6848 10.202C24.5555 10.3313 24.4828 10.5067 24.4828 10.6897V15.5172C24.4828 15.7001 24.5555 15.8756 24.6848 16.0049C24.8141 16.1342 24.9895 16.2069 25.1725 16.2069ZM31.7345 45.7607L35.4435 41.7241H12.069V48.6207C12.069 48.9865 12.2143 49.3373 12.473 49.596C12.7317 49.8547 13.0825 50 13.4483 50H32.8173L31.5021 47.2566C31.3945 47.0109 31.3592 46.7397 31.4004 46.4748C31.4415 46.2098 31.5575 45.9621 31.7345 45.7607ZM16.8966 48.6207H14.138C13.9551 48.6207 13.7796 48.548 13.6503 48.4187C13.521 48.2894 13.4483 48.1139 13.4483 47.931V45.8621C13.4483 45.6792 13.521 45.5037 13.6503 45.3744C13.7796 45.2451 13.9551 45.1724 14.138 45.1724C14.3209 45.1724 14.4963 45.2451 14.6256 45.3744C14.755 45.5037 14.8276 45.6792 14.8276 45.8621V47.2414H16.8966C17.0795 47.2414 17.2549 47.314 17.3843 47.4434C17.5136 47.5727 17.5862 47.7481 17.5862 47.931C17.5862 48.1139 17.5136 48.2894 17.3843 48.4187C17.2549 48.548 17.0795 48.6207 16.8966 48.6207ZM36.7118 40.3448L36.8966 40.1462L35.2104 38.2759H11.3794C11.1439 38.2736 10.9106 38.2306 10.6897 38.149L10.6897 39.6552C10.6897 39.8381 10.7624 40.0135 10.8917 40.1428C11.021 40.2722 11.1964 40.3448 11.3794 40.3448H36.7118Z" fill="#6E3083"/>
<path d="M35.2447 35.1524L35.2449 35.1524L35.2448 35.1392C35.2403 34.184 35.351 33.2329 35.5738 32.3063L39.3713 36.5264L37.6324 37.8697L35.4584 35.7423C35.3165 35.5802 35.24 35.3699 35.2447 35.1524ZM41.0665 27.7416C42.3669 27.7446 44.0779 27.9331 45.7363 29.1766C45.5616 29.3635 45.3775 29.5617 45.2102 29.7488C45.0627 29.9138 44.9217 30.0773 44.8052 30.2252C44.8035 30.2273 44.8019 30.2294 44.8003 30.2315C43.5837 29.6613 42.3824 29.4598 41.0196 29.5004L40.9976 29.501L40.9757 29.5036C39.4641 29.6825 38.5758 30.2251 37.7153 30.7508C37.5795 30.8338 37.4444 30.9163 37.3076 30.9969L36.5506 29.9044C37.4896 28.5074 39.1225 27.9956 41.0665 27.7416Z" stroke="#6E3083"/>
<path d="M37.8401 40.4226V40.4218L37.9686 40.2792L46.3589 30.9626L46.9407 30.3166L47.2065 31.1444C47.6214 32.4367 47.8299 33.7862 47.8242 35.1434M37.8401 40.4226L47.3242 35.1469M37.8401 40.4226L37.1587 41.1618L37.1583 41.1623L32.7038 46.0064L32.7035 46.0067C32.5427 46.1818 32.4381 46.4011 32.4031 46.6362C32.3681 46.8714 32.4044 47.1116 32.5072 47.326L32.5073 47.3261L33.4417 49.2722M37.8401 40.4226L33.4417 49.2722M47.8242 35.1434C47.8242 35.1453 47.8242 35.1473 47.8242 35.1492L47.3242 35.1469M47.8242 35.1434C47.8242 35.1412 47.8242 35.139 47.8241 35.1369L47.3242 35.1469M47.8242 35.1434C47.8321 35.6168 47.6597 36.0755 47.3418 36.4265L47.3421 36.4262L46.9704 36.0917M47.3242 35.1469C47.3312 35.4955 47.2047 35.8335 46.9704 36.0917M46.9704 36.0917L47.3408 36.4276M46.9704 36.0917L47.3408 36.4276M47.3408 36.4276L40.8973 43.5876L40.8933 43.592L40.8933 43.592L35.3892 49.5636L35.0215 49.2248M47.3408 36.4276L40.5256 43.2531L35.0215 49.2248M35.0215 49.2248L35.3891 49.5637M35.0215 49.2248C34.9452 49.3076 34.8497 49.3705 34.7435 49.4079C34.6373 49.4454 34.5236 49.4562 34.4122 49.4396C34.3008 49.4229 34.1952 49.3792 34.1046 49.3123C34.0141 49.2454 33.9412 49.1574 33.8925 49.0559M35.3891 49.5637L33.0718 46.3448C32.9786 46.4464 32.9179 46.5735 32.8976 46.7098C32.8774 46.8461 32.8984 46.9854 32.958 47.1097L33.8925 49.0559M35.3891 49.5637C35.2575 49.7065 35.0929 49.815 34.9097 49.8795C34.7265 49.9441 34.5303 49.9628 34.3382 49.9341C34.1461 49.9053 33.9639 49.83 33.8077 49.7146C33.6514 49.5992 33.5257 49.4473 33.4417 49.2722M35.3891 49.5637L33.4417 49.2722M33.8925 49.0559L33.4418 49.2723L33.4417 49.2722M33.8925 49.0559L33.4417 49.2722M44.6167 40.8362L44.2445 40.4341L43.878 40.8414L41.5946 43.3794L41.291 43.7168L41.5976 44.0515L46.6611 49.5791L46.6612 49.5793C46.7926 49.7226 46.957 49.8314 47.1402 49.8964C47.3234 49.9614 47.5196 49.9806 47.7119 49.9521C47.9042 49.9237 48.0866 49.8487 48.2431 49.7335C48.3996 49.6183 48.5256 49.4665 48.6099 49.2914L48.61 49.2912L49.5693 47.296L49.5694 47.2959C49.6727 47.0809 49.709 46.8398 49.6736 46.6039C49.6382 46.368 49.5326 46.1482 49.3707 45.973L49.3705 45.9728L44.6167 40.8362ZM22.4133 32.569H22.4139C26.499 32.569 29.8104 29.2575 29.8104 25.1724C29.8104 21.0873 26.499 17.7759 22.4139 17.7759C18.3288 17.7759 15.0173 21.0873 15.0173 25.1724L15.0173 25.173C15.0218 29.2556 18.3307 32.5645 22.4133 32.569ZM21.8048 20.8942L22.2242 20.8257V20.4007V20.3448C22.2242 20.2945 22.2442 20.2463 22.2798 20.2107C22.3153 20.1752 22.3636 20.1552 22.4139 20.1552C22.4642 20.1552 22.5124 20.1752 22.548 20.2107C22.5836 20.2463 22.6035 20.2945 22.6035 20.3448V20.4007V20.8257L23.023 20.8942C24.4418 21.1257 25.3622 22.0964 25.3622 23.1034C25.3622 23.1538 25.3422 23.202 25.3066 23.2376C25.271 23.2731 25.2228 23.2931 25.1725 23.2931C25.1222 23.2931 25.074 23.2731 25.0384 23.2376C25.0028 23.202 24.9829 23.1538 24.9829 23.1034C24.9829 22.6335 24.7472 22.2342 24.4284 21.9421C24.1101 21.6503 23.6854 21.44 23.223 21.3262L22.6035 21.1738V21.8117V24.5386V24.9636L23.023 25.0321C24.4418 25.2637 25.3622 26.2343 25.3622 27.2414C25.3622 28.2484 24.4418 29.2191 23.023 29.4507L22.6035 29.5191V29.9441V30C22.6035 30.0503 22.5836 30.0985 22.548 30.1341C22.5124 30.1697 22.4642 30.1897 22.4139 30.1897C22.3636 30.1897 22.3153 30.1697 22.2798 30.1341C22.2442 30.0985 22.2242 30.0503 22.2242 30V29.9441V29.5191L21.8048 29.4507C20.386 29.2191 19.4656 28.2484 19.4656 27.2414C19.4656 27.1911 19.4856 27.1428 19.5212 27.1073C19.5567 27.0717 19.605 27.0517 19.6553 27.0517C19.7056 27.0517 19.7538 27.0717 19.7894 27.1073C19.8249 27.1428 19.8449 27.1911 19.8449 27.2414C19.8449 27.7114 20.0806 28.1106 20.3993 28.4027C20.7177 28.6945 21.1424 28.9048 21.6048 29.0186L22.2242 29.1711V28.5331V25.8062V25.3812L21.8048 25.3127C20.386 25.0812 19.4656 24.1105 19.4656 23.1034C19.4656 22.0964 20.386 21.1257 21.8048 20.8942Z" fill="white" stroke="#6E3083"/>
<path d="M11.3794 36.8966H33.9862C33.5777 36.3991 33.3579 35.7733 33.3656 35.1297C33.3485 33.3691 33.6912 31.6235 34.3725 30H29.1221C28.7574 30.5051 28.3373 30.9677 27.8697 31.3793H27.9311C28.4798 31.3793 29.0061 31.5973 29.3941 31.9853C29.7821 32.3733 30 32.8996 30 33.4483C29.9973 33.9962 29.7785 34.5208 29.3911 34.9082C29.0036 35.2957 28.479 35.5145 27.9311 35.5172H16.8966C16.3479 35.5172 15.8216 35.2993 15.4336 34.9113C15.0456 34.5232 14.8276 33.997 14.8276 33.4483C14.8303 32.9004 15.0492 32.3757 15.4366 31.9883C15.824 31.6009 16.3487 31.382 16.8966 31.3793H16.958C16.4903 30.9677 16.0702 30.5051 15.7056 30H11.3794C11.1964 30 11.021 30.0727 10.8917 30.202C10.7624 30.3313 10.6897 30.5067 10.6897 30.6897V36.2069C10.6897 36.3898 10.7624 36.5652 10.8917 36.6946C11.021 36.8239 11.1964 36.8966 11.3794 36.8966Z" fill="#6E3083"/>
</g>
<defs>
<clipPath id="clip0_654_1986">
<rect width="40" height="40" fill="white" transform="translate(10 10)"/>
</clipPath>
</defs>
</svg>
