<svg width="32" height="32" viewBox="0 0 32 32" fill="none" xmlns="http://www.w3.org/2000/svg">
<path d="M31 13.8125C30.8375 13.8125 30.675 13.7437 30.5563 13.6312C30.4438 13.5125 30.375 13.35 30.375 13.1875C30.375 13.025 30.4438 12.8625 30.5563 12.7438C30.7938 12.5125 31.2125 12.5125 31.4437 12.7438C31.5562 12.8625 31.625 13.025 31.625 13.1875C31.625 13.3562 31.5562 13.5125 31.4437 13.6312C31.325 13.7437 31.1625 13.8125 31 13.8125ZM9.75 25.0625C9.5875 25.0625 9.425 24.9937 9.30625 24.8812C9.19375 24.7625 9.125 24.6 9.125 24.4375C9.125 24.275 9.19375 24.1125 9.30625 23.9938C9.54375 23.7625 9.95625 23.7625 10.1937 23.9938C10.3062 24.1125 10.375 24.275 10.375 24.4375C10.375 24.6 10.3062 24.7625 10.1937 24.8812C10.075 24.9937 9.9125 25.0625 9.75 25.0625ZM31 18.8125C30.8342 18.8125 30.6753 18.7467 30.5581 18.6294C30.4408 18.5122 30.375 18.3533 30.375 18.1875V15.6875C30.375 15.5217 30.4408 15.3628 30.5581 15.2456C30.6753 15.1283 30.8342 15.0625 31 15.0625C31.1658 15.0625 31.3247 15.1283 31.4419 15.2456C31.5592 15.3628 31.625 15.5217 31.625 15.6875V18.1875C31.625 18.3533 31.5592 18.5122 31.4419 18.6294C31.3247 18.7467 31.1658 18.8125 31 18.8125ZM31 11.3125C30.8342 11.3125 30.6753 11.2467 30.5581 11.1294C30.4408 11.0122 30.375 10.8533 30.375 10.6875V3.5C30.375 3.33424 30.4408 3.17527 30.5581 3.05806C30.6753 2.94085 30.8342 2.875 31 2.875C31.1658 2.875 31.3247 2.94085 31.4419 3.05806C31.5592 3.17527 31.625 3.33424 31.625 3.5V10.6875C31.625 10.8533 31.5592 11.0122 31.4419 11.1294C31.3247 11.2467 31.1658 11.3125 31 11.3125ZM9.75 22.5625C9.58424 22.5625 9.42527 22.4967 9.30806 22.3794C9.19085 22.2622 9.125 22.1033 9.125 21.9375V14.5575C9.125 14.3917 9.19085 14.2328 9.30806 14.1156C9.42527 13.9983 9.58424 13.9325 9.75 13.9325C9.91576 13.9325 10.0747 13.9983 10.1919 14.1156C10.3092 14.2328 10.375 14.3917 10.375 14.5575V21.9375C10.375 22.1033 10.3092 22.2622 10.1919 22.3794C10.0747 22.4967 9.91576 22.5625 9.75 22.5625ZM9.75 30.0625C9.58424 30.0625 9.42527 29.9967 9.30806 29.8794C9.19085 29.7622 9.125 29.6033 9.125 29.4375V26.9375C9.125 26.7717 9.19085 26.6128 9.30806 26.4956C9.42527 26.3783 9.58424 26.3125 9.75 26.3125C9.91576 26.3125 10.0747 26.3783 10.1919 26.4956C10.3092 26.6128 10.375 26.7717 10.375 26.9375V29.4375C10.375 29.6033 10.3092 29.7622 10.1919 29.8794C10.0747 29.9967 9.91576 30.0625 9.75 30.0625ZM17.9556 29.755C17.7899 29.755 17.6309 29.6892 17.5137 29.5719C17.3965 29.4547 17.3306 29.2958 17.3306 29.13V19.4375C17.3306 19.2717 17.3965 19.1128 17.5137 18.9956C17.6309 18.8783 17.7899 18.8125 17.9556 18.8125C18.1214 18.8125 18.2804 18.8783 18.3976 18.9956C18.5148 19.1128 18.5806 19.2717 18.5806 19.4375V29.13C18.5806 29.2958 18.5148 29.4547 18.3976 29.5719C18.2804 29.6892 18.1214 29.755 17.9556 29.755Z" fill="#6E3083"/>
<path d="M29.75 20.0625C29.5842 20.0625 29.4253 19.9967 29.3081 19.8794C29.1908 19.7622 29.125 19.6033 29.125 19.4375C29.125 19.2717 29.1908 19.1128 29.3081 18.9956C29.4253 18.8783 29.5842 18.8125 29.75 18.8125C30.0944 18.8125 30.375 18.5319 30.375 18.1875C30.375 18.0217 30.4408 17.8628 30.5581 17.7456C30.6753 17.6283 30.8342 17.5625 31 17.5625C31.1658 17.5625 31.3247 17.6283 31.4419 17.7456C31.5592 17.8628 31.625 18.0217 31.625 18.1875C31.625 19.2213 30.7838 20.0625 29.75 20.0625Z" fill="#6E3083"/>
<path d="M29.75 20.0625H9.75C9.58424 20.0625 9.42527 19.9967 9.30806 19.8794C9.19085 19.7622 9.125 19.6033 9.125 19.4375C9.125 19.2717 9.19085 19.1128 9.30806 18.9956C9.42527 18.8783 9.58424 18.8125 9.75 18.8125H29.75C29.9158 18.8125 30.0747 18.8783 30.1919 18.9956C30.3092 19.1128 30.375 19.2717 30.375 19.4375C30.375 19.6033 30.3092 19.7622 30.1919 19.8794C30.0747 19.9967 29.9158 20.0625 29.75 20.0625ZM27.25 9.125H18.1025C17.9367 9.125 17.7778 9.05915 17.6606 8.94194C17.5433 8.82473 17.4775 8.66576 17.4775 8.5C17.4775 8.33424 17.5433 8.17527 17.6606 8.05806C17.7778 7.94085 17.9367 7.875 18.1025 7.875H27.25C27.4158 7.875 27.5747 7.94085 27.6919 8.05806C27.8092 8.17527 27.875 8.33424 27.875 8.5C27.875 8.66576 27.8092 8.82473 27.6919 8.94194C27.5747 9.05915 27.4158 9.125 27.25 9.125ZM27.25 11.625H18.8031C18.6374 11.625 18.4784 11.5592 18.3612 11.4419C18.244 11.3247 18.1781 11.1658 18.1781 11C18.1781 10.8342 18.244 10.6753 18.3612 10.5581C18.4784 10.4408 18.6374 10.375 18.8031 10.375H27.25C27.4158 10.375 27.5747 10.4408 27.6919 10.5581C27.8092 10.6753 27.875 10.8342 27.875 11C27.875 11.1658 27.8092 11.3247 27.6919 11.4419C27.5747 11.5592 27.4158 11.625 27.25 11.625ZM27.25 14.125H17.5594C17.3936 14.125 17.2346 14.0592 17.1174 13.9419C17.0002 13.8247 16.9344 13.6658 16.9344 13.5C16.9344 13.3342 17.0002 13.1753 17.1174 13.0581C17.2346 12.9408 17.3936 12.875 17.5594 12.875H27.25C27.4158 12.875 27.5747 12.9408 27.6919 13.0581C27.8092 13.1753 27.875 13.3342 27.875 13.5C27.875 13.6658 27.8092 13.8247 27.6919 13.9419C27.5747 14.0592 27.4158 14.125 27.25 14.125ZM24.75 6.625H12.875C12.7092 6.625 12.5503 6.55915 12.4331 6.44194C12.3158 6.32473 12.25 6.16576 12.25 6C12.25 5.83424 12.3158 5.67527 12.4331 5.55806C12.5503 5.44085 12.7092 5.375 12.875 5.375H24.75C24.9158 5.375 25.0747 5.44085 25.1919 5.55806C25.3092 5.67527 25.375 5.83424 25.375 6C25.375 6.16576 25.3092 6.32473 25.1919 6.44194C25.0747 6.55915 24.9158 6.625 24.75 6.625ZM18.8125 2.875C18.6467 2.875 18.4878 2.80915 18.3706 2.69194C18.2533 2.57473 18.1875 2.41576 18.1875 2.25V1C18.1875 0.83424 18.2533 0.675269 18.3706 0.558058C18.4878 0.440848 18.6467 0.375 18.8125 0.375C18.9783 0.375 19.1372 0.440848 19.2544 0.558058C19.3717 0.675269 19.4375 0.83424 19.4375 1V2.25C19.4375 2.41576 19.3717 2.57473 19.2544 2.69194C19.1372 2.80915 18.9783 2.875 18.8125 2.875ZM6.625 6.6225C6.45924 6.6225 6.30027 6.55665 6.18306 6.43944C6.06585 6.32223 6 6.16326 6 5.9975V3.5C6 3.33424 6.06585 3.17527 6.18306 3.05806C6.30027 2.94085 6.45924 2.875 6.625 2.875C6.79076 2.875 6.94973 2.94085 7.06694 3.05806C7.18415 3.17527 7.25 3.33424 7.25 3.5V5.9975C7.25 6.07958 7.23383 6.16085 7.20242 6.23668C7.17102 6.31251 7.12498 6.3814 7.06694 6.43944C7.00891 6.49748 6.94001 6.54352 6.86418 6.57492C6.78835 6.60633 6.70708 6.6225 6.625 6.6225Z" fill="#6E3083"/>
<path d="M6.625 4.125C6.45924 4.125 6.30027 4.05915 6.18306 3.94194C6.06585 3.82473 6 3.66576 6 3.5C6 2.46625 6.84125 1.625 7.875 1.625C8.04076 1.625 8.19973 1.69085 8.31694 1.80806C8.43415 1.92527 8.5 2.08424 8.5 2.25C8.5 2.41576 8.43415 2.57473 8.31694 2.69194C8.19973 2.80915 8.04076 2.875 7.875 2.875C7.53062 2.875 7.25 3.15562 7.25 3.5C7.25 3.66576 7.18415 3.82473 7.06694 3.94194C6.94973 4.05915 6.79076 4.125 6.625 4.125Z" fill="#6E3083"/>
<path d="M29.75 2.875H7.875C7.70924 2.875 7.55027 2.80915 7.43306 2.69194C7.31585 2.57473 7.25 2.41576 7.25 2.25C7.25 2.08424 7.31585 1.92527 7.43306 1.80806C7.55027 1.69085 7.70924 1.625 7.875 1.625H29.75C29.9158 1.625 30.0747 1.69085 30.1919 1.80806C30.3092 1.92527 30.375 2.08424 30.375 2.25C30.375 2.41576 30.3092 2.57473 30.1919 2.69194C30.0747 2.80915 29.9158 2.875 29.75 2.875Z" fill="#6E3083"/>
<path d="M30.9999 4.125C30.8342 4.125 30.6752 4.05915 30.558 3.94194C30.4408 3.82473 30.3749 3.66576 30.3749 3.5C30.3749 3.15563 30.0943 2.875 29.7499 2.875C29.5842 2.875 29.4252 2.80915 29.308 2.69194C29.1908 2.57473 29.1249 2.41576 29.1249 2.25C29.1249 2.08424 29.1908 1.92527 29.308 1.80806C29.4252 1.69085 29.5842 1.625 29.7499 1.625C30.7837 1.625 31.6249 2.46625 31.6249 3.5C31.6249 3.66576 31.5591 3.82473 31.4419 3.94194C31.3247 4.05915 31.1657 4.125 30.9999 4.125ZM2.77492 13.2513C2.62577 13.2513 2.48152 13.1979 2.36826 13.1009C2.25499 13.0038 2.18016 12.8695 2.15729 12.7221C2.13442 12.5747 2.16502 12.424 2.24356 12.2972C2.3221 12.1704 2.4434 12.0758 2.58555 12.0306C4.60747 11.387 6.75859 11.2611 8.8418 11.6644C9.18055 11.73 9.4018 12.0581 9.3368 12.3969C9.30488 12.5594 9.20992 12.7027 9.07266 12.7955C8.93541 12.8882 8.76702 12.9229 8.6043 12.8919C6.72672 12.5282 4.78789 12.6417 2.96555 13.2219C2.90381 13.241 2.83957 13.2509 2.77492 13.2513Z" fill="#6E3083"/>
<path d="M8.7231 12.9025C8.58065 12.9028 8.44239 12.8544 8.33121 12.7653C8.22003 12.6763 8.1426 12.5519 8.11175 12.4128C8.08091 12.2738 8.09849 12.1283 8.16159 12.0006C8.22469 11.8729 8.32952 11.7706 8.45872 11.7106L14.2725 8.99998C14.4227 8.92995 14.5947 8.92247 14.7504 8.9792C14.9062 9.03593 15.0331 9.15222 15.1031 9.30248C15.1731 9.45275 15.1806 9.62467 15.1239 9.78045C15.0671 9.93622 14.9509 10.0631 14.8006 10.1331L8.98685 12.8437C8.90444 12.8828 8.8143 12.9029 8.7231 12.9025Z" fill="#6E3083"/>
<path d="M15.5938 12.4575C15.4515 12.4576 15.3135 12.4092 15.2025 12.3202C15.0915 12.2313 15.0141 12.1071 14.9832 11.9682C14.9524 11.8294 14.9698 11.6841 15.0326 11.5565C15.0954 11.4289 15.1999 11.3265 15.3288 11.2663C15.8325 11.0313 15.6382 10.5475 15.5938 10.4531C15.55 10.3588 15.3069 9.90002 14.8 10.1338C14.6498 10.2038 14.4778 10.2113 14.3221 10.1545C14.1663 10.0978 14.0394 9.98153 13.9694 9.83127C13.8994 9.68101 13.8919 9.50908 13.9486 9.35331C14.0054 9.19754 14.1216 9.07068 14.2719 9.00065C15.3619 8.49127 16.3325 9.08002 16.7263 9.92502C17.12 10.7694 16.9475 11.8906 15.8569 12.3994C15.7745 12.4378 15.6847 12.4576 15.5938 12.4575Z" fill="#6E3083"/>
<path d="M9.74996 15.1825C9.60771 15.1826 9.46967 15.1342 9.35866 15.0452C9.24766 14.9563 9.17032 14.8321 9.13943 14.6932C9.10853 14.5544 9.12594 14.4091 9.18877 14.2815C9.25159 14.1539 9.35608 14.0515 9.48496 13.9913L15.3287 11.2663C15.4031 11.2315 15.4835 11.2118 15.5655 11.2082C15.6475 11.2046 15.7294 11.2171 15.8065 11.2452C15.8837 11.2732 15.9545 11.3161 16.0151 11.3716C16.0756 11.427 16.1246 11.4938 16.1593 11.5681C16.1941 11.6425 16.2138 11.723 16.2174 11.805C16.221 11.8869 16.2085 11.9688 16.1804 12.046C16.1524 12.1231 16.1094 12.194 16.054 12.2545C15.9986 12.315 15.9318 12.364 15.8575 12.3988L10.0137 15.1238C9.93121 15.1626 9.84114 15.1826 9.74996 15.1825ZM12.1056 31.625C11.9783 31.625 11.8541 31.5862 11.7494 31.5137C11.6448 31.4412 11.5649 31.3384 11.5202 31.2192C11.4756 31.1 11.4684 30.9701 11.4996 30.8467C11.5308 30.7233 11.599 30.6124 11.695 30.5288L17.5456 25.4325C17.6706 25.3236 17.8337 25.2688 17.9991 25.2802C18.1645 25.2915 18.3186 25.3681 18.4275 25.4931C18.5364 25.6181 18.5912 25.7812 18.5798 25.9466C18.5684 26.112 18.4918 26.2661 18.3668 26.375L12.5162 31.4713C12.4024 31.5705 12.2565 31.6251 12.1056 31.625Z" fill="#6E3083"/>
<path d="M23.8063 31.625C23.6555 31.6252 23.5097 31.5706 23.3962 31.4712L17.5456 26.375C17.4837 26.3211 17.4331 26.2555 17.3965 26.182C17.36 26.1085 17.3383 26.0285 17.3327 25.9466C17.327 25.8647 17.3376 25.7825 17.3637 25.7047C17.3899 25.6269 17.4311 25.555 17.485 25.4931C17.5389 25.4312 17.6045 25.3806 17.678 25.344C17.7515 25.3075 17.8315 25.2858 17.9134 25.2802C17.9953 25.2745 18.0775 25.2851 18.1553 25.3112C18.2331 25.3374 18.305 25.3786 18.3669 25.4325L24.2175 30.5287C24.3135 30.6124 24.3817 30.7234 24.4129 30.8468C24.4441 30.9703 24.4369 31.1003 24.3921 31.2195C24.3474 31.3387 24.2673 31.4415 24.1626 31.5139C24.0579 31.5864 23.9336 31.6251 23.8063 31.625ZM1 22.0912C0.83424 22.0912 0.675269 22.0254 0.558058 21.9082C0.440848 21.791 0.375 21.632 0.375 21.4662V15.0187C0.375 14.853 0.440848 14.694 0.558058 14.5768C0.675269 14.4596 0.83424 14.3937 1 14.3937C1.16576 14.3937 1.32473 14.4596 1.44194 14.5768C1.55915 14.694 1.625 14.853 1.625 15.0187V21.4662C1.625 21.632 1.55915 21.791 1.44194 21.9082C1.32473 22.0254 1.16576 22.0912 1 22.0912Z" fill="#6E3083"/>
<path d="M1.00003 15.6438C0.834266 15.6438 0.675295 15.5779 0.558085 15.4607C0.440875 15.3435 0.375027 15.1845 0.375027 15.0188C0.372242 14.3473 0.586949 13.6931 0.98702 13.1539C1.38709 12.6147 1.95101 12.2195 2.5944 12.0275C2.67314 12.003 2.75594 11.9944 2.83803 12.002C2.92013 12.0097 2.99989 12.0335 3.07274 12.0722C3.14558 12.1108 3.21006 12.1635 3.26246 12.2271C3.31486 12.2908 3.35415 12.3642 3.37806 12.4431C3.40198 12.522 3.41004 12.6049 3.40179 12.6869C3.39353 12.7689 3.36913 12.8485 3.32998 12.9211C3.29083 12.9937 3.23772 13.0578 3.17369 13.1097C3.10966 13.1617 3.03598 13.2004 2.9569 13.2238C2.57084 13.339 2.23247 13.5762 1.9924 13.8997C1.75232 14.2233 1.62344 14.6159 1.62503 15.0188C1.62503 15.1845 1.55918 15.3435 1.44197 15.4607C1.32476 15.5779 1.16579 15.6438 1.00003 15.6438ZM3.50003 30.0625C3.33427 30.0625 3.1753 29.9967 3.05809 29.8795C2.94088 29.7622 2.87503 29.6033 2.87503 29.4375V15.6969C2.87503 15.5311 2.94088 15.3722 3.05809 15.2549C3.1753 15.1377 3.33427 15.0719 3.50003 15.0719C3.66579 15.0719 3.82476 15.1377 3.94197 15.2549C4.05918 15.3722 4.12503 15.5311 4.12503 15.6969V29.4375C4.12503 29.6033 4.05918 29.7622 3.94197 29.8795C3.82476 29.9967 3.66579 30.0625 3.50003 30.0625ZM6.62503 12.6806C4.6444 12.6806 2.97065 11.0069 2.97065 9.02626C2.97065 7.04564 4.6444 5.37189 6.62503 5.37189C8.60565 5.37189 10.2794 7.04501 10.2794 9.02626C10.2794 11.0075 8.60565 12.6806 6.62503 12.6806ZM6.62503 6.62251C5.3219 6.62251 4.22065 7.72376 4.22065 9.02689C4.22065 10.33 5.3219 11.4313 6.62503 11.4313C7.92815 11.4313 9.0294 10.33 9.0294 9.02689C9.0294 7.72314 7.92815 6.62251 6.62503 6.62251ZM6.62503 30.0625C6.45927 30.0625 6.30029 29.9967 6.18308 29.8795C6.06587 29.7622 6.00003 29.6033 6.00003 29.4375V21.4663C6.00003 21.3005 6.06587 21.1415 6.18308 21.0243C6.30029 20.9071 6.45927 20.8413 6.62503 20.8413C6.79079 20.8413 6.94976 20.9071 7.06697 21.0243C7.18418 21.1415 7.25003 21.3005 7.25003 21.4663V29.4375C7.25003 29.6033 7.18418 29.7622 7.06697 29.8795C6.94976 29.9967 6.79079 30.0625 6.62503 30.0625Z" fill="#6E3083"/>
<path d="M2.25 23.3006C1.31812 23.3006 0.375 22.6706 0.375 21.4662C0.375 21.3005 0.440848 21.1415 0.558058 21.0243C0.675269 20.9071 0.83424 20.8412 1 20.8412C1.16576 20.8412 1.32473 20.9071 1.44194 21.0243C1.55915 21.1415 1.625 21.3005 1.625 21.4662C1.625 22.0225 2.14562 22.0506 2.25 22.0506C2.35438 22.0506 2.875 22.0225 2.875 21.4662C2.875 21.3005 2.94085 21.1415 3.05806 21.0243C3.17527 20.9071 3.33424 20.8412 3.5 20.8412C3.66576 20.8412 3.82473 20.9071 3.94194 21.0243C4.05915 21.1415 4.125 21.3005 4.125 21.4662C4.125 22.6706 3.18187 23.3006 2.25 23.3006ZM8.1875 31.5737C7.62875 31.5737 7.1025 31.3862 6.70562 31.045C6.25062 30.6537 6 30.0825 6 29.4375C6 29.2717 6.06585 29.1128 6.18306 28.9956C6.30027 28.8783 6.45924 28.8125 6.625 28.8125C6.79076 28.8125 6.94973 28.8783 7.06694 28.9956C7.18415 29.1128 7.25 29.2717 7.25 29.4375C7.25 30.2987 8.09188 30.3237 8.1875 30.3237C8.28312 30.3237 9.125 30.2987 9.125 29.4375C9.125 29.2717 9.19085 29.1128 9.30806 28.9956C9.42527 28.8783 9.58424 28.8125 9.75 28.8125C9.91576 28.8125 10.0747 28.8783 10.1919 28.9956C10.3092 29.1128 10.375 29.2717 10.375 29.4375C10.375 30.84 9.27437 31.5737 8.1875 31.5737Z" fill="#6E3083"/>
<path d="M5.0625 31.5737C4.50375 31.5737 3.9775 31.3862 3.58062 31.045C3.12562 30.6537 2.875 30.0825 2.875 29.4375C2.875 29.2717 2.94085 29.1128 3.05806 28.9956C3.17527 28.8783 3.33424 28.8125 3.5 28.8125C3.66576 28.8125 3.82473 28.8783 3.94194 28.9956C4.05915 29.1128 4.125 29.2717 4.125 29.4375C4.125 30.2987 4.96688 30.3237 5.0625 30.3237C5.15812 30.3237 6 30.2987 6 29.4375C6 29.2717 6.06585 29.1128 6.18306 28.9956C6.30027 28.8783 6.45924 28.8125 6.625 28.8125C6.79076 28.8125 6.94973 28.8783 7.06694 28.9956C7.18415 29.1128 7.25 29.2717 7.25 29.4375C7.25 30.84 6.14937 31.5737 5.0625 31.5737Z" fill="#6E3083"/>
</svg>
