<svg width="45" height="44" viewBox="0 0 45 44" fill="none" xmlns="http://www.w3.org/2000/svg">
<g clip-path="url(#clip0_676_15)">
<path d="M36.5864 25.1501L39.5528 17.1952C40.3079 15.4377 41.8347 15.7643 41.8347 15.7643C43.0165 15.9806 43.6524 16.949 43.5176 18.0337L40.7965 28.9724C40.0937 31.7827 38.1345 34.5232 35.8536 36.2943L31.152 39.6581V41.6418C31.152 42.1164 30.7673 42.5011 30.2926 42.5011H22.408V37.5148C22.408 37.5148 21.8942 31.836 27.29 28.5566L33.7404 24.4163C34.0577 24.2117 34.4273 24.103 34.8048 24.1031C35.3147 24.1031 35.8197 24.3009 36.2008 24.6818C36.9559 25.438 36.9714 26.6594 36.2347 27.434L31.8908 30.8599" stroke="#6E3083" stroke-width="1.74679" stroke-miterlimit="10" stroke-linecap="round" stroke-linejoin="round"/>
<path d="M12.899 30.8599L8.55509 27.434C7.81835 26.6594 7.83382 25.438 8.58904 24.6818C8.77224 24.4983 8.98984 24.3527 9.22938 24.2534C9.46892 24.1541 9.7257 24.103 9.985 24.1031C10.3524 24.1031 10.7227 24.2059 11.0494 24.4163L17.4998 28.5566C22.8955 31.836 22.3817 37.5148 22.3817 37.5148V42.5011H14.4972C14.0225 42.5011 13.6378 42.1164 13.6378 41.6417V39.6581L8.93622 36.2943C6.65518 34.5232 4.69607 31.7827 3.99327 28.9724L1.27197 18.0337C1.13722 16.9489 1.77316 15.9805 2.95489 15.7643C2.95489 15.7643 4.48165 15.4377 5.23687 17.1952L8.20326 25.1501M18.4865 23.7422H17.3987C16.924 23.7422 16.5393 23.3574 16.5393 22.8828V18.2752C16.5393 16.4106 18.0508 14.8991 19.9153 14.8991H24.8743C26.7389 14.8991 28.2503 16.4107 28.2503 18.2752V22.8828C28.2503 23.3574 27.8656 23.7422 27.391 23.7422H26.3171" stroke="#6E3083" stroke-width="1.74679" stroke-miterlimit="10" stroke-linecap="round" stroke-linejoin="round"/>
<path d="M22.3947 14.8991C24.5955 14.8991 26.3796 13.115 26.3796 10.9143C26.3796 8.71351 24.5955 6.92944 22.3947 6.92944C20.194 6.92944 18.4099 8.71351 18.4099 10.9143C18.4099 13.115 20.194 14.8991 22.3947 14.8991Z" stroke="#6E3083" stroke-width="1.74679" stroke-miterlimit="10" stroke-linecap="round" stroke-linejoin="round"/>
<path d="M26.4972 9.46863H31.6504C33.515 9.46863 35.0265 10.9802 35.0265 12.8447V17.3955C35.0265 17.9013 34.6164 18.3113 34.1107 18.3113H28.2454" stroke="#6E3083" stroke-width="1.74679" stroke-miterlimit="10" stroke-linecap="round" stroke-linejoin="round"/>
<path d="M29.1712 9.46851C31.372 9.46851 33.1561 7.68444 33.1561 5.48368C33.1561 3.28291 31.372 1.49884 29.1712 1.49884C26.9705 1.49884 25.1864 3.28291 25.1864 5.48368C25.1864 7.68444 26.9705 9.46851 29.1712 9.46851Z" stroke="#6E3083" stroke-width="1.74679" stroke-miterlimit="10" stroke-linecap="round" stroke-linejoin="round"/>
<path d="M16.5441 18.3113H10.6789C10.1731 18.3113 9.76306 17.9013 9.76306 17.3955V12.8447C9.76306 10.9801 11.2746 9.46863 13.1391 9.46863H18.4099" stroke="#6E3083" stroke-width="1.74679" stroke-miterlimit="10" stroke-linecap="round" stroke-linejoin="round"/>
<path d="M15.6184 9.46851C17.8191 9.46851 19.6032 7.68444 19.6032 5.48368C19.6032 3.28291 17.8191 1.49884 15.6184 1.49884C13.4176 1.49884 11.6335 3.28291 11.6335 5.48368C11.6335 7.68444 13.4176 9.46851 15.6184 9.46851Z" stroke="#6E3083" stroke-width="1.74679" stroke-miterlimit="10" stroke-linecap="round" stroke-linejoin="round"/>
</g>
<defs>
<clipPath id="clip0_676_15">
<rect width="44" height="44" fill="white" transform="translate(0.394775)"/>
</clipPath>
</defs>
</svg>
