<svg width="44" height="45" viewBox="0 0 44 45" fill="none" xmlns="http://www.w3.org/2000/svg">
<g clip-path="url(#clip0_676_25)">
<path d="M40.6788 8.76097C40.149 8.76118 39.627 8.88822 39.1564 9.13147C38.6858 9.37472 38.2802 9.72711 37.9736 10.1592C36.7847 10.1789 35.7589 10.4907 34.925 11.0878C33.9711 11.7678 33.332 12.7645 33.0242 14.0522C32.8844 14.6697 32.8161 15.3012 32.8206 15.9343V21.1024C32.8206 23.12 32.5477 24.8633 32.0099 26.2823C31.6936 27.1102 31.1232 28.2366 30.2026 28.9013C29.7601 29.2204 29.2997 29.3821 28.8343 29.3821C28.3387 29.3703 27.8596 29.2018 27.4656 28.9009C26.5414 28.2353 25.9732 27.1101 25.6592 26.2836C25.1375 24.9067 24.865 23.2267 24.8487 21.2878C26.2381 21.0547 27.5412 20.4582 28.6256 19.5588C30.099 18.3251 31.0662 16.5918 31.3424 14.6901C31.3844 14.4114 31.3466 14.1266 31.2332 13.8686C31.1198 13.6106 30.9356 13.3901 30.7019 13.2326L31.7367 6.21576C31.7655 6.03009 31.7832 5.84288 31.7897 5.65511C31.8136 4.92893 31.6591 4.31121 31.3315 3.82103C30.9435 3.23614 30.34 2.86712 29.5801 2.75351C29.4714 2.73839 29.3585 2.72859 29.2138 2.72171C29.1974 2.72086 29.1811 2.72171 29.1649 2.72171C29.0321 2.35368 28.7747 2.04374 28.4373 1.84566C28.0999 1.64759 27.7038 1.57389 27.3177 1.63735C26.9316 1.70081 26.5799 1.89742 26.3237 2.19307C26.0674 2.48873 25.9228 2.86476 25.9148 3.25593C25.9068 3.6471 26.036 4.02873 26.28 4.33458C26.524 4.64044 26.8673 4.85123 27.2505 4.93039C27.6337 5.00954 28.0325 4.95205 28.3777 4.76791C28.7229 4.58376 28.9927 4.28458 29.1404 3.92226C29.1458 3.92269 29.151 3.92364 29.1565 3.92389C29.2635 3.92896 29.3428 3.93567 29.4079 3.94478C29.8272 4.0076 30.1283 4.18471 30.3296 4.48807C30.5157 4.76651 30.6022 5.14567 30.5865 5.61738C30.5815 5.75876 30.5681 5.89972 30.5463 6.0395L29.5176 13.0134C29.2249 13.0815 28.9596 13.2362 28.7562 13.4574C28.5529 13.6786 28.421 13.956 28.3777 14.2533C28.2074 15.4272 27.6119 16.4976 26.7042 17.2611C25.797 18.0178 24.6362 18.4178 23.347 18.4178C22.0594 18.4178 20.8993 18.0178 19.9933 17.2621C19.0849 16.4982 18.4889 15.4271 18.3185 14.2526C18.2743 13.9557 18.1421 13.6789 17.939 13.458C17.7358 13.2371 17.4711 13.0823 17.1789 13.0135L16.1487 6.04698C16.1282 5.9037 16.1152 5.75944 16.1098 5.6148C16.0942 5.14541 16.1807 4.76625 16.3676 4.48601C16.5676 4.18446 16.8688 4.00734 17.2839 3.94512C17.3527 3.93524 17.4311 3.92862 17.5304 3.92407L17.5562 3.92321C17.7041 4.28616 17.9744 4.58588 18.3202 4.77038C18.666 4.95487 19.0655 5.0125 19.4493 4.93326C19.8332 4.85403 20.1772 4.64292 20.4217 4.33658C20.6661 4.03023 20.7957 3.64797 20.7878 3.25612C20.7799 2.86426 20.6351 2.48752 20.3785 2.19126C20.1219 1.89501 19.7696 1.69793 19.3829 1.63421C18.9962 1.57048 18.5994 1.64415 18.2613 1.84241C17.9232 2.04068 17.6651 2.35104 17.532 2.71965L17.483 2.72128C17.3358 2.72816 17.2219 2.73847 17.1099 2.75403C16.3561 2.86704 15.7526 3.23579 15.3659 3.81896C15.037 4.31087 14.8824 4.92859 14.9065 5.65278C14.9132 5.84099 14.9299 6.02871 14.9565 6.21516L15.994 13.2327C15.7605 13.3903 15.5762 13.6106 15.4625 13.8683C15.3487 14.126 15.3102 14.4107 15.3512 14.6894C15.6279 16.5917 16.5959 18.3253 18.0702 19.5589C19.155 20.459 20.4587 21.0558 21.8489 21.2887C21.8668 23.6544 22.2265 25.738 22.9185 27.4837C23.5792 29.1562 24.5456 30.4869 25.7138 31.3324C26.6655 32.019 27.7444 32.3817 28.8343 32.3817C29.9241 32.3817 31.003 32.0188 31.9551 31.3317C33.1227 30.4867 34.0892 29.156 34.7498 27.4836C35.4601 25.6864 35.8202 23.539 35.8202 21.1025V15.9345C35.8147 15.5341 35.8558 15.1344 35.9428 14.7435C36.0762 14.1828 36.3189 13.7736 36.666 13.5261C36.9307 13.3478 37.2339 13.2347 37.5507 13.196C37.7548 13.7693 38.1126 14.2754 38.5848 14.6591C39.0571 15.0429 39.6257 15.2895 40.2286 15.372C40.8315 15.4546 41.4454 15.3699 42.0035 15.1272C42.5615 14.8845 43.0421 14.4932 43.3928 13.9959C43.7436 13.4987 43.9509 12.9146 43.9923 12.3075C44.0336 11.7004 43.9074 11.0936 43.6273 10.5534C43.3472 10.0131 42.9241 9.56025 42.4041 9.24416C41.8841 8.92807 41.2873 8.76092 40.6788 8.76097ZM27.5891 3.76104C27.4956 3.76104 27.4043 3.73332 27.3265 3.68139C27.2488 3.62945 27.1882 3.55563 27.1525 3.46926C27.1167 3.3829 27.1073 3.28786 27.1256 3.19618C27.1438 3.10449 27.1888 3.02027 27.2549 2.95417C27.321 2.88807 27.4052 2.84305 27.4969 2.82481C27.5886 2.80657 27.6836 2.81593 27.77 2.85171C27.8564 2.88748 27.9302 2.94806 27.9821 3.02579C28.0341 3.10352 28.0618 3.1949 28.0618 3.28839C28.0616 3.41369 28.0118 3.53382 27.9232 3.62243C27.8346 3.71104 27.7144 3.76088 27.5891 3.76104ZM19.1071 2.81573C19.2006 2.81573 19.292 2.84345 19.3697 2.89539C19.4474 2.94732 19.508 3.02114 19.5438 3.10751C19.5796 3.19388 19.5889 3.28891 19.5707 3.3806C19.5524 3.47228 19.5074 3.5565 19.4413 3.6226C19.3752 3.68871 19.291 3.73372 19.1993 3.75196C19.1076 3.7702 19.0126 3.76084 18.9262 3.72506C18.8399 3.68929 18.766 3.62871 18.7141 3.55098C18.6622 3.47325 18.6344 3.38187 18.6344 3.28839C18.6346 3.16306 18.6844 3.0429 18.7731 2.95429C18.8617 2.86568 18.9818 2.81584 19.1071 2.81573ZM35.9654 12.5473C35.3762 12.9674 34.9746 13.6129 34.7714 14.4658C34.6629 14.9477 34.611 15.4406 34.6168 15.9345V21.1026C34.6168 23.3874 34.285 25.3856 33.6306 27.0414C33.2288 28.0587 32.4896 29.4595 31.2502 30.3563C30.5577 30.8891 29.7085 31.178 28.8347 31.1781C27.961 31.1782 27.1117 30.8895 26.4191 30.3568C25.1797 29.4598 24.4401 28.059 24.038 27.0407C23.3839 25.3907 23.0522 23.3928 23.0522 21.1025V21.0952C23.0522 21.0902 23.053 21.0849 23.0534 21.0797L23.0705 20.8117C23.0801 20.661 23.0326 20.5123 22.9375 20.395C22.8424 20.2777 22.7067 20.2004 22.5573 20.1785L22.287 20.1388C21.0192 19.9757 19.8242 19.4542 18.8425 18.6356C17.5956 17.5917 16.777 16.125 16.543 14.5158C16.5315 14.4382 16.5512 14.3592 16.598 14.2961C16.6447 14.2331 16.7146 14.1912 16.7922 14.1797C16.8698 14.1682 16.9488 14.188 17.0118 14.2347C17.0748 14.2814 17.1167 14.3513 17.1282 14.4289C17.3418 15.8953 18.0868 17.2322 19.2217 18.1852C20.3479 19.1247 21.7746 19.6212 23.3474 19.6212C24.9219 19.6212 26.3494 19.1247 27.4766 18.1843C28.6114 17.2309 29.3561 15.8936 29.5692 14.4269C29.5746 14.389 29.5875 14.3526 29.6071 14.3197C29.6267 14.2868 29.6527 14.2581 29.6834 14.2353C29.7148 14.2121 29.7505 14.1954 29.7884 14.1862C29.8264 14.1769 29.8657 14.1753 29.9043 14.1814C29.9425 14.1867 29.9793 14.1995 30.0126 14.2192C30.0458 14.2388 30.0748 14.2649 30.0978 14.2958C30.1209 14.3268 30.1376 14.362 30.1469 14.3995C30.1562 14.437 30.1579 14.4759 30.152 14.5141C29.9189 16.1238 29.1007 17.5912 27.8539 18.6358C26.8682 19.4507 25.673 19.9719 24.4051 20.1397L24.1395 20.1788C23.9901 20.2007 23.8543 20.278 23.7593 20.3954C23.6642 20.5128 23.6168 20.6616 23.6264 20.8123L23.6436 21.0803C23.6436 21.0855 23.6443 21.0908 23.6448 21.0958V21.1031C23.6448 23.2668 23.944 25.1536 24.5344 26.7114C24.9069 27.6925 25.596 29.0383 26.7615 29.8774C27.3548 30.337 28.0839 30.5864 28.8344 30.5865C29.5849 30.5866 30.3141 30.3374 30.9075 29.878C32.0694 29.0393 32.7601 27.6937 33.1355 26.7111C33.7257 25.1537 34.025 23.2669 34.025 21.1031V15.9345C34.0205 15.3948 34.0779 14.8564 34.196 14.3298C34.4338 13.3352 34.9144 12.5742 35.6254 12.0672C36.1605 11.6959 36.781 11.4665 37.4289 11.4005C37.3874 11.6004 37.3644 11.8036 37.3601 12.0076C36.8591 12.0747 36.3811 12.2596 35.9654 12.5473ZM40.6788 14.1973C40.2602 14.197 39.8512 14.0727 39.5033 13.8399C39.1554 13.6072 38.8844 13.2765 38.7245 12.8897C38.5645 12.503 38.5229 12.0774 38.6048 11.667C38.6867 11.2565 38.8884 10.8796 39.1846 10.5838C39.4807 10.288 39.8579 10.0867 40.2684 10.0053C40.679 9.92388 41.1045 9.96603 41.4911 10.1264C41.8776 10.2868 42.208 10.5582 42.4403 10.9064C42.6726 11.2545 42.7965 11.6637 42.7963 12.0823C42.7953 12.6434 42.5719 13.1811 42.1749 13.5776C41.7779 13.9742 41.2399 14.197 40.6788 14.1973ZM40.6788 10.4082C40.3477 10.4082 40.024 10.5064 39.7487 10.6904C39.4734 10.8743 39.2589 11.1358 39.1322 11.4416C39.0055 11.7475 38.9723 12.0841 39.0369 12.4089C39.1015 12.7336 39.2609 13.0319 39.495 13.266C39.7292 13.5001 40.0275 13.6596 40.3522 13.7242C40.6769 13.7888 41.0135 13.7556 41.3194 13.6289C41.6253 13.5022 41.8868 13.2876 42.0707 13.0123C42.2547 12.737 42.3529 12.4134 42.3529 12.0823C42.3524 11.6384 42.1759 11.2129 41.8621 10.899C41.5482 10.5851 41.1227 10.4087 40.6788 10.4082ZM40.6788 12.5525C40.5858 12.5525 40.4949 12.5249 40.4176 12.4732C40.3402 12.4216 40.28 12.3481 40.2444 12.2622C40.2088 12.1763 40.1995 12.0817 40.2177 11.9905C40.2358 11.8993 40.2806 11.8155 40.3464 11.7497C40.4122 11.684 40.4959 11.6392 40.5872 11.6211C40.6784 11.6029 40.7729 11.6122 40.8589 11.6478C40.9448 11.6834 41.0182 11.7437 41.0699 11.821C41.1215 11.8984 41.1491 11.9893 41.1491 12.0823C41.1489 12.207 41.0993 12.3265 41.0112 12.4146C40.923 12.5027 40.8035 12.5523 40.6788 12.5524V12.5525ZM20.7017 7.09679L21.1419 5.89367C21.1842 5.77777 21.2612 5.67767 21.3623 5.60696C21.4634 5.53625 21.5838 5.49833 21.7071 5.49836H21.7084C21.832 5.49865 21.9524 5.53694 22.0535 5.60802C22.1545 5.67911 22.2312 5.77955 22.2732 5.89573L22.8381 7.45979L23.4679 5.47962C23.5066 5.35789 23.583 5.25162 23.6861 5.17621C23.7892 5.1008 23.9136 5.06015 24.0413 5.06016H24.0499C24.1791 5.06191 24.3042 5.1052 24.4069 5.18363C24.5096 5.26205 24.5842 5.37144 24.6199 5.49561C24.8262 6.21275 25.0192 6.85385 25.2112 7.45558C25.2583 7.34896 25.3354 7.25832 25.433 7.19467C25.5307 7.13102 25.6447 7.09711 25.7612 7.09705H28.1857C28.3453 7.09705 28.4984 7.16047 28.6113 7.27334C28.7242 7.38622 28.7876 7.53932 28.7876 7.69896C28.7876 7.85859 28.7242 8.01169 28.6113 8.12457C28.4984 8.23745 28.3453 8.30086 28.1857 8.30086H26.1852L25.7606 9.48792C25.7188 9.60473 25.6419 9.70577 25.5405 9.7772C25.4391 9.84863 25.318 9.88696 25.194 9.88693C25.0699 9.88695 24.9488 9.84858 24.8473 9.77709C24.7459 9.70559 24.669 9.60447 24.6273 9.48757C24.4157 8.89489 24.2152 8.29832 24.0257 7.69818L23.4477 9.5137C23.4097 9.63356 23.335 9.73848 23.2342 9.8137C23.1334 9.88893 23.0116 9.93067 22.8859 9.93307H22.8742C22.7504 9.93309 22.6296 9.89494 22.5284 9.82381C22.4271 9.75268 22.3502 9.65204 22.3082 9.53561L21.7035 7.86172L21.6875 7.90546C21.6452 8.02137 21.5683 8.12146 21.4672 8.19217C21.3661 8.26289 21.2457 8.3008 21.1223 8.30078H18.5078C18.3481 8.30078 18.195 8.23736 18.0822 8.12448C17.9693 8.0116 17.9059 7.85851 17.9059 7.69887C17.9059 7.53924 17.9693 7.38614 18.0822 7.27326C18.195 7.16038 18.3481 7.09696 18.5078 7.09696L20.7017 7.09679ZM12.4991 34.4018C12.4984 34.9626 12.3102 35.507 11.9646 35.9485C11.6189 36.3901 11.1355 36.7034 10.5913 36.8386V37.7522C10.5913 37.9119 10.5279 38.065 10.415 38.1779C10.3021 38.2907 10.149 38.3541 9.98939 38.3541C9.82976 38.3541 9.67666 38.2907 9.56378 38.1779C9.4509 38.065 9.38749 37.9119 9.38749 37.7522V36.8381C8.98504 36.7384 8.61347 36.5408 8.30584 36.2628C7.99822 35.9848 7.76407 35.6351 7.62422 35.2448C7.57066 35.0944 7.57902 34.9289 7.64746 34.7848C7.71589 34.6406 7.83881 34.5295 7.98915 34.4759C8.1395 34.4224 8.30497 34.4307 8.44915 34.4992C8.59334 34.5676 8.70443 34.6905 8.75799 34.8409C8.83862 35.0662 8.9796 35.2651 9.16554 35.4159C9.35148 35.5666 9.57524 35.6634 9.81242 35.6956C10.0496 35.7279 10.2911 35.6944 10.5105 35.5988C10.73 35.5032 10.9189 35.3492 11.0568 35.1535C11.1947 34.9579 11.2762 34.7281 11.2925 34.4893C11.3087 34.2505 11.2591 34.0118 11.1489 33.7993C11.0388 33.5868 10.8724 33.4086 10.6679 33.2841C10.4635 33.1597 10.2288 33.0938 9.98939 33.0937C9.37573 33.0939 8.78322 32.8694 8.32377 32.4626C7.86433 32.0558 7.56977 31.4948 7.49572 30.8856C7.42168 30.2764 7.57328 29.6612 7.92189 29.1562C8.27049 28.6512 8.79197 28.2913 9.38783 28.1445V27.2336C9.38783 27.0739 9.45124 26.9208 9.56412 26.808C9.677 26.6951 9.8301 26.6317 9.98974 26.6317C10.1494 26.6317 10.3025 26.6951 10.4153 26.808C10.5282 26.9208 10.5916 27.0739 10.5916 27.2336V28.1449C10.9941 28.2447 11.3657 28.4424 11.6733 28.7204C11.9809 28.9984 12.2151 29.3481 12.3549 29.7384C12.4085 29.8888 12.4001 30.0542 12.3317 30.1984C12.2632 30.3426 12.1403 30.4537 11.99 30.5072C11.8396 30.5608 11.6742 30.5524 11.53 30.484C11.3858 30.4156 11.2747 30.2927 11.2211 30.1423C11.1406 29.9166 10.9997 29.7173 10.8136 29.5662C10.6276 29.4151 10.4036 29.318 10.1661 29.2856C9.92864 29.2532 9.68683 29.2866 9.46707 29.3823C9.24732 29.4779 9.05807 29.6321 8.92 29.828C8.78193 30.0239 8.70034 30.254 8.68414 30.4931C8.66794 30.7323 8.71776 30.9712 8.82815 31.184C8.93855 31.3967 9.10527 31.575 9.31012 31.6995C9.51497 31.8239 9.75006 31.8896 9.98974 31.8895C10.6554 31.8907 11.2934 32.1558 11.7639 32.6268C12.2343 33.0978 12.4987 33.7361 12.4991 34.4018ZM20.0307 29.9915C19.7057 29.9917 19.3811 30.0155 19.0596 30.0627C18.1252 27.6487 16.4739 25.0407 14.1399 22.292C14.5296 22.1234 14.8491 21.8256 15.0448 21.4489C15.2404 21.0721 15.3001 20.6394 15.2138 20.2237C15.1275 19.808 14.9005 19.4348 14.5711 19.167C14.2417 18.8992 13.8299 18.7533 13.4054 18.7537H13.4033C13.4395 18.7122 13.4765 18.6703 13.5143 18.6276C14.2291 17.8198 15.1187 16.815 14.7035 13.7914C14.6892 13.6645 14.6414 13.5437 14.565 13.4413C14.4887 13.3389 14.3865 13.2586 14.269 13.2087C13.8 13.0164 13.3722 13.3462 12.7244 13.8451C12.4244 14.0761 11.8326 14.5321 11.5416 14.6205C11.3995 14.3283 11.258 14.0645 11.1205 13.8087C10.9332 13.4601 10.7397 13.0998 10.5348 12.6493C10.4869 12.5442 10.4098 12.4551 10.3127 12.3926C10.2155 12.3301 10.1025 12.2969 9.98699 12.297H9.98595C9.87027 12.2971 9.75707 12.3305 9.65992 12.3933C9.56277 12.4561 9.48578 12.5456 9.43819 12.651C9.23074 13.1102 9.03428 13.4764 8.84342 13.8306C8.71021 14.0782 8.57306 14.3333 8.43221 14.6205C8.14148 14.5313 7.5516 14.077 7.25263 13.8471C6.60388 13.3475 6.17497 13.0175 5.70575 13.209C5.58745 13.2581 5.48454 13.3381 5.40785 13.4407C5.33115 13.5433 5.28349 13.6647 5.26988 13.792C4.85463 16.8155 5.7452 17.8206 6.4608 18.6282C6.4987 18.6712 6.53565 18.7129 6.57192 18.7544H6.5702C6.14607 18.7546 5.73495 18.9009 5.40603 19.1686C5.07711 19.4364 4.85047 19.8093 4.76424 20.2246C4.67801 20.6398 4.73747 21.0721 4.93259 21.4487C5.12772 21.8253 5.44661 22.1231 5.8356 22.2922C2.78439 25.8804 0.907861 29.2145 0.255681 32.2133C-0.362038 35.0537 0.144564 37.5728 1.72092 39.4981C3.22138 41.3307 5.59721 42.5275 8.41106 42.8682C8.93291 42.9312 9.45808 42.9628 9.98372 42.9627C11.9756 42.9627 13.9258 42.5096 15.5473 41.6601C16.3543 42.3876 17.3261 42.9078 18.379 43.1758C19.4319 43.4439 20.5342 43.4517 21.5908 43.1985C22.6474 42.9454 23.6265 42.4389 24.4436 41.7229C25.2607 41.0068 25.8913 40.1027 26.281 39.0885C26.6707 38.0743 26.8077 36.9805 26.6802 35.9015C26.5527 34.8226 26.1646 33.7908 25.5493 32.8953C24.934 31.9999 24.1101 31.2676 23.1486 30.7617C22.1871 30.2558 21.1169 29.9914 20.0304 29.9915H20.0307ZM7.3622 17.8293C6.79363 17.1877 6.2536 16.5774 6.38431 14.6971C6.43072 14.7326 6.4761 14.7674 6.51838 14.8002C7.27291 15.3813 8.05288 15.9817 8.77484 15.8099C8.92918 15.7715 9.07277 15.6986 9.19476 15.5966C9.31676 15.4945 9.41395 15.3661 9.47901 15.221C9.61909 14.9297 9.75736 14.6726 9.90371 14.4005L9.98776 14.244L10.0599 14.3784C10.2098 14.6574 10.3513 14.9208 10.4944 15.2206C10.5598 15.3659 10.6573 15.4945 10.7796 15.5966C10.9018 15.6987 11.0457 15.7716 11.2003 15.81C11.9238 15.9819 12.7042 15.3803 13.4589 14.7989C13.5002 14.767 13.5443 14.733 13.5895 14.6985C13.7203 16.5788 13.1807 17.1885 12.613 17.83C12.3468 18.11 12.1141 18.42 11.9195 18.7538H8.05657C7.86173 18.4197 7.62871 18.1095 7.3622 17.8293ZM6.57063 19.9575H13.4054C13.4903 19.9565 13.5746 19.9724 13.6534 20.0042C13.7321 20.0361 13.8038 20.0832 13.8642 20.1429C13.9246 20.2026 13.9726 20.2737 14.0053 20.3521C14.038 20.4305 14.0549 20.5146 14.0549 20.5995C14.0549 20.6844 14.038 20.7685 14.0053 20.8469C13.9726 20.9253 13.9246 20.9964 13.8642 21.0561C13.8038 21.1158 13.7321 21.163 13.6534 21.1948C13.5746 21.2266 13.4903 21.2425 13.4054 21.2415H6.57063C6.40165 21.2395 6.24025 21.171 6.12145 21.0509C6.00264 20.9307 5.93602 20.7685 5.93602 20.5995C5.93602 20.4305 6.00264 20.2683 6.12145 20.1481C6.24025 20.028 6.40165 19.9595 6.57063 19.9575ZM8.55578 41.6731C6.05174 41.37 3.95512 40.3268 2.65239 38.7355C1.31718 37.1047 0.895142 34.9377 1.43208 32.4691C2.07902 29.4946 4.0518 26.123 7.29542 22.4452H12.681C15.1658 25.2665 16.9111 27.9207 17.8785 30.3482C16.8729 30.6884 15.9627 31.2631 15.2232 32.0247C14.4836 32.7863 13.9359 33.713 13.6253 34.7282C13.3148 35.7433 13.2503 36.8179 13.4372 37.8629C13.6241 38.9079 14.057 39.8935 14.7001 40.7381C12.9144 41.5942 10.7177 41.9347 8.55578 41.6731ZM20.0308 42.182C18.9442 42.1822 17.8819 41.8602 16.9783 41.2567C16.0748 40.6531 15.3705 39.7952 14.9546 38.7914C14.5386 37.7875 14.4297 36.6829 14.6417 35.6172C14.8536 34.5515 15.3768 33.5725 16.1451 32.8042C16.9135 32.0359 17.8924 31.5126 18.9581 31.3007C20.0239 31.0888 21.1285 31.1977 22.1323 31.6136C23.1362 32.0295 23.9941 32.7338 24.5976 33.6374C25.2012 34.541 25.5232 35.6032 25.5229 36.6898C25.5209 38.1458 24.9416 39.5416 23.912 40.5711C22.8824 41.6006 21.4867 42.1799 20.0307 42.182H20.0308ZM22.0215 38.0788C22.0208 38.5012 21.8859 38.9124 21.6363 39.2531C21.3866 39.5938 21.0352 39.8463 20.6327 39.9742V40.5157C20.6327 40.6753 20.5693 40.8284 20.4564 40.9413C20.3435 41.0541 20.1904 41.1176 20.0308 41.1176C19.8711 41.1176 19.718 41.0541 19.6051 40.9413C19.4923 40.8284 19.4289 40.6753 19.4289 40.5157V39.9738C19.1366 39.8809 18.8697 39.7219 18.6489 39.5091C18.4281 39.2964 18.2593 39.0356 18.1556 38.747C18.1019 38.5967 18.1101 38.4312 18.1784 38.2869C18.2467 38.1427 18.3695 38.0314 18.5198 37.9777C18.6701 37.924 18.8356 37.9322 18.9798 38.0005C19.1241 38.0688 19.2353 38.1916 19.289 38.3419C19.3372 38.4778 19.4219 38.598 19.5337 38.6891C19.6455 38.7802 19.7803 38.8389 19.9232 38.8586C20.0661 38.8783 20.2117 38.8584 20.344 38.801C20.4764 38.7436 20.5904 38.6509 20.6736 38.5331C20.7569 38.4153 20.8061 38.2768 20.816 38.1329C20.8259 37.989 20.796 37.8451 20.7297 37.717C20.6633 37.5889 20.563 37.4815 20.4398 37.4065C20.3165 37.3316 20.175 37.2919 20.0308 37.292C19.5556 37.2919 19.0961 37.1218 18.7353 36.8125C18.3745 36.5033 18.1363 36.0751 18.0636 35.6055C17.991 35.1359 18.0887 34.6558 18.3392 34.2519C18.5896 33.8481 18.9762 33.5471 19.4292 33.4035V32.8645C19.4292 32.7049 19.4926 32.5518 19.6055 32.4389C19.7184 32.3261 19.8715 32.2626 20.0311 32.2626C20.1907 32.2626 20.3438 32.3261 20.4567 32.4389C20.5696 32.5518 20.633 32.7049 20.633 32.8645V33.4043C20.9248 33.4974 21.1914 33.6563 21.412 33.8688C21.6326 34.0812 21.8015 34.3416 21.9055 34.6297C21.9322 34.7041 21.944 34.783 21.9402 34.8619C21.9365 34.9409 21.9172 35.0183 21.8835 35.0898C21.8498 35.1613 21.8023 35.2254 21.7438 35.2786C21.6853 35.3317 21.6169 35.3728 21.5426 35.3995C21.4682 35.4263 21.3893 35.4381 21.3103 35.4343C21.2314 35.4305 21.154 35.4112 21.0825 35.3775C21.011 35.3438 20.9469 35.2964 20.8937 35.2379C20.8406 35.1794 20.7995 35.111 20.7727 35.0366C20.7244 34.9007 20.6396 34.7807 20.5277 34.6897C20.4157 34.5987 20.2809 34.5402 20.138 34.5206C19.9951 34.501 19.8495 34.521 19.7172 34.5785C19.5849 34.636 19.4709 34.7287 19.3877 34.8466C19.3045 34.9644 19.2553 35.1029 19.2454 35.2468C19.2356 35.3907 19.2654 35.5346 19.3318 35.6627C19.3981 35.7908 19.4984 35.8982 19.6216 35.9732C19.7449 36.0482 19.8863 36.0879 20.0306 36.088C20.5584 36.0886 21.0644 36.2985 21.4377 36.6717C21.8109 37.045 22.0208 37.551 22.0214 38.0788H22.0215Z" fill="#6E3083"/>
</g>
<defs>
<clipPath id="clip0_676_25">
<rect width="44" height="44" fill="white" transform="translate(0 0.49884)"/>
</clipPath>
</defs>
</svg>
