<svg width="38" height="38" viewBox="0 0 38 38" fill="none" xmlns="http://www.w3.org/2000/svg">
<path d="M25.9992 15.1516C25.9992 14.0281 25.0852 13.1133 23.9609 13.1133C22.8375 13.1133 21.9234 14.0273 21.9234 15.1516C21.9234 15.7625 22.1938 16.3109 22.6211 16.6852C22.1581 16.9247 21.7682 17.2844 21.4922 17.7266C21.2119 17.4892 20.8991 17.2932 20.5633 17.1445C21.2203 16.6625 21.6484 15.8844 21.6484 15.0086C21.6484 13.5484 20.4602 12.3602 19 12.3602C17.5398 12.3602 16.3516 13.5484 16.3516 15.0086C16.3516 15.8844 16.7797 16.6625 17.4367 17.1445C17.1011 17.2936 16.7884 17.4896 16.5078 17.7266C16.2318 17.2844 15.8419 16.9247 15.3789 16.6852C15.8062 16.3117 16.0766 15.7625 16.0766 15.1516C16.0766 14.0281 15.1625 13.1133 14.0391 13.1133C12.9156 13.1133 12.0016 14.0273 12.0016 15.1516C12.0016 15.7633 12.2727 16.3125 12.7016 16.6867C11.7656 17.1727 11.1242 18.15 11.1242 19.275V21.8562C11.1242 22.0625 11.2586 22.2437 11.4555 22.3047C12.3578 22.582 13.2461 22.7211 14.1109 22.7211C14.4563 22.7211 14.7977 22.6984 15.1344 22.6547V24.2664C15.1344 24.4719 15.2687 24.6539 15.4656 24.7148C16.7016 25.0945 17.9133 25.2844 19.0953 25.2844C20.2812 25.2844 21.4367 25.093 22.5523 24.7102C22.6448 24.6784 22.7249 24.6185 22.7817 24.539C22.8384 24.4594 22.8688 24.3641 22.8687 24.2664V22.6391C23.2586 22.6937 23.6453 22.7211 24.0273 22.7211C24.8969 22.7211 25.7445 22.5805 26.5617 22.3C26.6541 22.2682 26.7343 22.2084 26.791 22.1288C26.8478 22.0493 26.8782 21.954 26.8781 21.8562V19.275C26.8781 18.15 26.2367 17.1719 25.3008 16.6867C25.7281 16.3125 25.9992 15.7633 25.9992 15.1516ZM23.9617 14.0508C24.5688 14.0508 25.0625 14.5445 25.0625 15.1516C25.0625 15.7586 24.5688 16.2516 23.9617 16.2516C23.3547 16.2516 22.8617 15.7578 22.8617 15.1516C22.8617 14.5453 23.3547 14.0508 23.9617 14.0508ZM19 13.2969C19.9438 13.2969 20.7109 14.0641 20.7109 15.0078C20.7109 15.9516 19.9438 16.7187 19 16.7187C18.0562 16.7187 17.2891 15.9516 17.2891 15.0078C17.2891 14.0641 18.0562 13.2969 19 13.2969ZM14.0383 14.0508C14.6453 14.0508 15.1383 14.5445 15.1383 15.1516C15.1383 15.7586 14.6445 16.2516 14.0383 16.2516C13.432 16.2516 12.9383 15.7578 12.9383 15.1516C12.9383 14.5453 13.432 14.0508 14.0383 14.0508ZM12.0609 21.5031V19.275C12.0609 18.1844 12.9484 17.2969 14.0391 17.2969C14.8102 17.2969 15.5188 17.7648 15.8375 18.4586C15.3945 19.0875 15.1336 19.8531 15.1336 20.6789V21.7062C14.1516 21.8547 13.1211 21.7867 12.0609 21.5031ZM21.9297 23.925C20.0844 24.4883 18.1164 24.4852 16.0703 23.9148V20.6797C16.0703 19.0641 17.3844 17.75 19 17.75C20.6156 17.75 21.9297 19.0641 21.9297 20.6797V23.925ZM25.9391 19.275V21.5133C24.9586 21.7977 23.9273 21.8562 22.8672 21.6906V20.6797C22.8672 19.8539 22.6062 19.0883 22.1633 18.4594C22.482 17.7656 23.1906 17.2977 23.9617 17.2977C25.0523 17.2969 25.9391 18.1844 25.9391 19.275ZM34.218 15.3891C32.3859 15.3891 30.8695 16.7609 30.6391 18.5312H29.3469C29.2656 16.0094 28.2789 13.7133 26.7008 11.957L29.1312 9.52969C29.5294 9.79809 29.9987 9.94121 30.4789 9.94062C31.8133 9.94062 32.8992 8.85469 32.8992 7.52031C32.8992 6.18594 31.8125 5.10078 30.4781 5.10078C29.1438 5.10078 28.0578 6.18672 28.0578 7.52109C28.0578 8.01875 28.2086 8.48125 28.4672 8.86641L26.0422 11.2891C24.3 9.66953 22.0016 8.64141 19.468 8.52734V5.99453C20.8305 5.77031 21.8734 4.58437 21.8734 3.15937C21.8734 1.57422 20.5844 0.285156 18.9992 0.285156C17.4141 0.285156 16.125 1.57422 16.125 3.15937C16.125 4.58437 17.168 5.77031 18.5305 5.99453V8.52734C15.9961 8.64062 13.6961 9.67031 11.9539 11.2914L6.38047 5.71719C6.64863 5.31926 6.79148 4.85016 6.79063 4.37031C6.79063 3.03594 5.70469 1.95 4.37109 1.95C3.03672 1.95 1.95078 3.03594 1.95078 4.37031C1.95078 5.70469 3.03672 6.79062 4.37109 6.79062C4.86953 6.79062 5.33281 6.63906 5.71797 6.38047L11.2977 11.9609C9.72109 13.7164 8.73516 16.0117 8.65391 18.532H7.36172C7.13125 16.7617 5.61484 15.3898 3.78281 15.3898C1.79141 15.3891 0.171875 17.0094 0.171875 19C0.171875 20.9906 1.79141 22.6109 3.78203 22.6109C5.61406 22.6109 7.13047 21.2391 7.36094 19.4687H8.66484C8.80703 21.9461 9.82422 24.1922 11.4109 25.9031L5.44922 31.8578C5.05108 31.5894 4.58173 31.4463 4.10156 31.4469C2.76719 31.4469 1.68125 32.5328 1.68125 33.8672C1.68125 35.2016 2.76719 36.2875 4.10156 36.2875C5.43594 36.2875 6.52187 35.2016 6.52187 33.8672C6.52187 33.3695 6.37109 32.907 6.1125 32.5219L12.0797 26.5617C13.8062 28.1172 16.0578 29.1008 18.532 29.2117V32.0062C17.1695 32.2305 16.1266 33.4164 16.1266 34.8414C16.1266 36.4266 17.4156 37.7156 19.0008 37.7156C20.5859 37.7156 21.875 36.4266 21.875 34.8414C21.875 33.4164 20.832 32.2305 19.4695 32.0062V29.2109C21.9383 29.1 24.1844 28.1211 25.9094 26.5727L28.1914 28.8547C27.9232 29.2526 27.7804 29.7217 27.7812 30.2016C27.7812 31.5359 28.8672 32.6219 30.2016 32.6219C31.5359 32.6219 32.6211 31.5359 32.6211 30.2016C32.6211 28.8672 31.5352 27.7812 30.2016 27.7812C29.7218 27.7808 29.2528 27.9236 28.8547 28.1914L26.5781 25.9148C28.1711 24.2023 29.193 21.9516 29.3352 19.4687H30.6391C30.8695 21.2391 32.3859 22.6109 34.218 22.6109C36.2086 22.6109 37.8281 20.9914 37.8281 19C37.8281 17.0086 36.2086 15.3891 34.218 15.3891ZM30.4781 6.03828C31.2953 6.03828 31.9609 6.70312 31.9609 7.52109C31.9609 8.33906 31.2961 9.00391 30.4781 9.00391C29.6602 9.00391 28.9953 8.33906 28.9953 7.52109C28.9953 6.70312 29.6609 6.03828 30.4781 6.03828ZM17.0633 3.15937C17.0633 2.09141 17.932 1.22266 19 1.22266C20.068 1.22266 20.9367 2.09141 20.9367 3.15937C20.9367 4.22734 20.068 5.09609 19 5.09609C17.932 5.09609 17.0633 4.22734 17.0633 3.15937ZM4.37109 5.85234C3.55391 5.85234 2.88828 5.1875 2.88828 4.36953C2.88828 3.55156 3.55312 2.88672 4.37109 2.88672C5.18906 2.88672 5.85313 3.55156 5.85313 4.36953C5.85313 5.1875 5.18828 5.85234 4.37109 5.85234ZM3.78203 21.6734C2.30859 21.6734 1.10938 20.4742 1.10938 19C1.10938 17.5258 2.30859 16.3266 3.78203 16.3266C5.25547 16.3266 6.45547 17.5258 6.45547 19C6.45547 20.4742 5.25625 21.6734 3.78203 21.6734ZM4.10156 35.3492C3.28438 35.3492 2.61875 34.6844 2.61875 33.8664C2.61875 33.0484 3.28359 32.3836 4.10156 32.3836C4.91953 32.3836 5.58437 33.0484 5.58437 33.8664C5.58437 34.6844 4.91875 35.3492 4.10156 35.3492ZM20.9367 34.8406C20.9367 35.9086 20.068 36.7773 19 36.7773C17.932 36.7773 17.0633 35.9086 17.0633 34.8406C17.0633 33.7727 17.932 32.9039 19 32.9039C20.068 32.9039 20.9367 33.7727 20.9367 34.8406ZM30.2 28.7187C31.0172 28.7187 31.682 29.3836 31.682 30.2016C31.682 31.0195 31.0172 31.6844 30.2 31.6844C29.3828 31.6844 28.7172 31.0195 28.7172 30.2016C28.7172 29.3836 29.3828 28.7187 30.2 28.7187ZM19 28.2844C13.8086 28.2844 9.58516 24.0609 9.58516 18.8687C9.58516 13.6766 13.8086 9.45391 19 9.45391C24.1914 9.45391 28.4148 13.6773 28.4148 18.8695C28.4148 24.0617 24.1914 28.2844 19 28.2844ZM34.218 21.6734C32.7438 21.6734 31.5453 20.4742 31.5453 19C31.5453 17.5258 32.7445 16.3266 34.218 16.3266C35.6914 16.3266 36.8906 17.5258 36.8906 19C36.8906 20.4742 35.6914 21.6734 34.218 21.6734Z" fill="#6E3083"/>
</svg>
